<svg width="16" height="16" viewBox="0 0 16 16" fill="none" xmlns="http://www.w3.org/2000/svg">
<path d="M15.8881 8.54393C15.8849 8.72875 15.8833 8.88925 15.8833 9.01084C15.8833 12.8645 12.3247 16 7.95217 16C3.57969 16 0.0210761 12.8645 0.0210761 9.01084C0.0210761 9.01084 0 6.44766 0 7.19505C0 3.22626 3.5651 0 7.94569 0C12.156 0 15.6028 2.98308 15.8654 6.73462C15.8735 7.28584 15.8849 7.58577 15.8881 8.54393ZM7.95217 15.1343C10.9563 15.1343 13.5227 13.4968 14.5425 11.2011C13.1142 13.1223 10.6904 14.3885 7.94569 14.3885C5.22039 14.3885 2.81123 13.1385 1.37967 11.24C2.4124 13.5179 4.96585 15.1343 7.95217 15.1343ZM15.024 7.14966C14.9965 3.68021 11.8334 0.86412 7.94569 0.86412C4.04175 0.86412 0.865741 3.70291 0.865741 7.19343C0.865741 10.684 4.04175 13.5227 7.94569 13.5227C11.8448 13.5227 15.0159 10.6904 15.0256 7.20802C15.0256 7.18695 15.024 7.16911 15.024 7.14966ZM10.1798 8.87628C10.1798 9.67069 9.67717 10.3711 8.57797 10.5348V11.3616H8.13537V11.3584H7.73331V10.564C6.8854 10.4975 6.2515 10.1603 5.81376 9.70797L6.35688 8.95896C6.66167 9.29618 7.13993 9.60908 7.73169 9.69987V8.10133C6.88378 7.88732 5.99372 7.58253 5.99372 6.51089C5.99372 5.67109 6.66977 5.00314 7.73169 4.91235V4.0612H8.38991V4.08066H8.57635V4.95612C9.16 5.05664 9.65934 5.29821 10.0468 5.67109L9.5037 6.38768C9.23944 6.12342 8.91519 5.95157 8.57797 5.85429V7.27936C9.37886 7.50309 10.1798 7.85166 10.1798 8.87628ZM8.57797 9.66744C9.01084 9.54585 9.1908 9.24916 9.1908 8.96545C9.1908 8.64768 8.93627 8.46935 8.57797 8.33641V9.66744ZM7.73331 5.76188C7.27125 5.82024 6.98429 6.07478 6.98429 6.43794C6.98429 6.75894 7.29719 6.92431 7.73331 7.05563V5.76188ZM7.98622 2.68315C5.05988 2.68315 2.67991 4.7405 2.67991 7.26963C2.67991 7.34421 2.68153 7.41879 2.68639 7.49174C2.69936 7.73006 2.51616 7.93434 2.27784 7.94731C2.26973 7.94731 2.26163 7.94731 2.25352 7.94731C2.02493 7.94731 1.83362 7.76897 1.82227 7.53876C1.81741 7.44959 1.81417 7.3588 1.81417 7.26963C1.81417 4.26386 4.58324 1.81741 7.98622 1.81741C8.22454 1.81741 8.41909 2.01196 8.41909 2.25028C8.41909 2.4886 8.22454 2.68315 7.98622 2.68315Z" fill="#777777"/>
</svg>
