<svg width="18" height="16" viewBox="0 0 18 16" fill="none" xmlns="http://www.w3.org/2000/svg">
<path d="M15.4705 12.2674H8.53473L3.20139 16V12.2674H1.6007C0.715872 12.2674 0 11.5498 0 10.6684V1.59896C0 0.71413 0.715872 0 1.59895 0H15.4688C16.3536 0 17.0695 0.715872 17.0695 1.59896V10.6684C17.0695 11.5498 16.3518 12.2674 15.4705 12.2674ZM16.0035 1.86545C16.0035 1.42478 15.6447 1.06597 15.204 1.06597H1.86719C1.42652 1.06597 1.06771 1.42478 1.06771 1.86545V10.4002C1.06771 10.8426 1.42652 11.1997 1.86719 11.1997H4.26736V13.8681L8 11.1997H15.2005C15.6412 11.1997 16 10.8426 16 10.4002L16.0035 1.86545Z" fill="#666666"/>
</svg>
