<svg width="18" height="5" viewBox="0 0 18 5" fill="none" xmlns="http://www.w3.org/2000/svg">
<path d="M1.66753 0.781006C0.747514 0.781006 0 1.5505 0 2.50005C0 3.4496 0.747514 4.2191 1.66753 4.2191C2.58934 4.2191 3.33506 3.4496 3.33506 2.50005C3.33506 1.5505 2.58934 0.781006 1.66753 0.781006ZM8.80485 0.781006C7.88304 0.781006 7.13732 1.5505 7.13732 2.50005C7.13732 3.4496 7.88483 4.2191 8.80485 4.2191C9.72666 4.2191 10.4724 3.4496 10.4724 2.50005C10.4724 1.5505 9.72666 0.781006 8.80485 0.781006ZM15.9422 0.781006C15.0204 0.781006 14.2746 1.5505 14.2746 2.50005C14.2746 3.4496 15.0222 4.2191 15.9422 4.2191C16.864 4.2191 17.6097 3.4496 17.6097 2.50005C17.6097 1.5505 16.8622 0.781006 15.9422 0.781006Z" fill="#666666"/>
</svg>
