<svg width="10" height="10" viewBox="0 0 10 10" fill="none" xmlns="http://www.w3.org/2000/svg">
<mask id="path-1-inside-1" fill="white">
<path d="M2.41884 0.0327228C1.61525 0.186028 0.914685 0.648721 0.476809 1.31794C-0.183108 2.3217 -0.157965 3.50063 0.551911 4.92985C1.16791 6.17442 2.23436 7.3816 3.54145 8.31972C4.01688 8.65752 4.68594 9.05768 4.78292 9.05768C4.9612 9.05768 5.87745 8.47923 6.52479 7.96005C8.43238 6.42471 9.68315 4.31075 9.58944 2.77214C9.54568 2.04039 9.28299 1.4368 8.78258 0.908312C8.39173 0.495578 7.93818 0.229783 7.38161 0.0764774C7.03451 -0.0173999 6.32463 -0.0236033 6.00561 0.0608046C5.56463 0.182763 5.32708 0.289049 4.98308 0.526762C4.48594 0.870762 3.92611 1.61182 3.98553 1.84643C4.02929 2.02162 4.22015 2.10602 4.37639 2.02472C4.40774 2.00594 4.49525 1.88088 4.57655 1.74635C4.90798 1.17411 5.43337 0.77068 6.07141 0.595497C6.21214 0.554844 6.38406 0.539171 6.66242 0.539171C6.94079 0.539171 7.11271 0.554844 7.25344 0.595497C8.38862 0.908149 9.14226 1.95272 9.05785 3.0941C8.95777 4.45443 7.80691 6.23695 6.19957 7.53164C5.85557 7.80691 5.28953 8.20086 4.90798 8.42601L4.79533 8.49474L4.48888 8.30731C3.78211 7.8758 3.18799 7.40348 2.58129 6.79368C1.10832 5.3145 0.339177 3.64463 0.576727 2.45933C0.673706 1.99027 0.901951 1.56186 1.23028 1.23043C1.44611 1.0177 1.62423 0.892639 1.91827 0.75517C2.28725 0.579987 2.49672 0.536231 2.95648 0.539333C3.32856 0.539333 3.38798 0.54864 3.65378 0.639415C3.81329 0.695742 3.979 0.739496 4.02276 0.739496C4.19157 0.739496 4.31043 0.49868 4.22292 0.336069C4.18537 0.264069 3.94766 0.160886 3.635 0.0795801C3.32252 -0.0017258 2.72529 -0.0267057 2.41884 0.0327228Z"/>
</mask>
<path d="M2.41884 0.0327228C1.61525 0.186028 0.914685 0.648721 0.476809 1.31794C-0.183108 2.3217 -0.157965 3.50063 0.551911 4.92985C1.16791 6.17442 2.23436 7.3816 3.54145 8.31972C4.01688 8.65752 4.68594 9.05768 4.78292 9.05768C4.9612 9.05768 5.87745 8.47923 6.52479 7.96005C8.43238 6.42471 9.68315 4.31075 9.58944 2.77214C9.54568 2.04039 9.28299 1.4368 8.78258 0.908312C8.39173 0.495578 7.93818 0.229783 7.38161 0.0764774C7.03451 -0.0173999 6.32463 -0.0236033 6.00561 0.0608046C5.56463 0.182763 5.32708 0.289049 4.98308 0.526762C4.48594 0.870762 3.92611 1.61182 3.98553 1.84643C4.02929 2.02162 4.22015 2.10602 4.37639 2.02472C4.40774 2.00594 4.49525 1.88088 4.57655 1.74635C4.90798 1.17411 5.43337 0.77068 6.07141 0.595497C6.21214 0.554844 6.38406 0.539171 6.66242 0.539171C6.94079 0.539171 7.11271 0.554844 7.25344 0.595497C8.38862 0.908149 9.14226 1.95272 9.05785 3.0941C8.95777 4.45443 7.80691 6.23695 6.19957 7.53164C5.85557 7.80691 5.28953 8.20086 4.90798 8.42601L4.79533 8.49474L4.48888 8.30731C3.78211 7.8758 3.18799 7.40348 2.58129 6.79368C1.10832 5.3145 0.339177 3.64463 0.576727 2.45933C0.673706 1.99027 0.901951 1.56186 1.23028 1.23043C1.44611 1.0177 1.62423 0.892639 1.91827 0.75517C2.28725 0.579987 2.49672 0.536231 2.95648 0.539333C3.32856 0.539333 3.38798 0.54864 3.65378 0.639415C3.81329 0.695742 3.979 0.739496 4.02276 0.739496C4.19157 0.739496 4.31043 0.49868 4.22292 0.336069C4.18537 0.264069 3.94766 0.160886 3.635 0.0795801C3.32252 -0.0017258 2.72529 -0.0267057 2.41884 0.0327228Z" fill="#666666"/>
<path d="M2.41884 0.0327228L2.70442 1.5053L2.69994 1.50615L2.41884 0.0327228ZM0.476809 1.31794L1.732 2.13922L1.73019 2.14198L0.476809 1.31794ZM0.551911 4.92985L1.89533 4.26259L1.89626 4.26447L0.551911 4.92985ZM3.54145 8.31972L2.67265 9.54252L2.66683 9.53834L3.54145 8.31972ZM6.52479 7.96005L7.4653 9.12858L7.46327 9.1302L6.52479 7.96005ZM9.58944 2.77214L8.09221 2.86334L8.09211 2.86168L9.58944 2.77214ZM8.78258 0.908312L9.87172 -0.12309L9.87179 -0.123016L8.78258 0.908312ZM7.38161 0.0764774L7.77323 -1.37151L7.77994 -1.36967L7.38161 0.0764774ZM6.00561 0.0608046L5.60577 -1.38492L5.61384 -1.38716L5.62193 -1.3893L6.00561 0.0608046ZM4.98308 0.526762L4.12956 -0.70673L4.13033 -0.707263L4.98308 0.526762ZM3.98553 1.84643L5.43962 1.4781L5.44083 1.48295L3.98553 1.84643ZM4.37639 2.02472L5.14715 3.31155L5.10864 3.33462L5.06881 3.35534L4.37639 2.02472ZM4.57655 1.74635L5.87457 2.49812L5.86755 2.51024L5.86031 2.52221L4.57655 1.74635ZM6.07141 0.595497L6.48768 2.03658L6.47814 2.03934L6.46856 2.04197L6.07141 0.595497ZM7.25344 0.595497L6.85514 2.04165L6.84614 2.03917L6.83717 2.03658L7.25344 0.595497ZM9.05785 3.0941L7.56189 2.98404L7.56193 2.98348L9.05785 3.0941ZM6.19957 7.53164L7.14052 8.69982L7.13675 8.70284L6.19957 7.53164ZM4.90798 8.42601L4.12671 7.14553L4.13615 7.13977L4.14569 7.13414L4.90798 8.42601ZM4.79533 8.49474L5.5766 9.77521L4.79439 10.2525L4.01268 9.77438L4.79533 8.49474ZM4.48888 8.30731L5.27052 7.02706L5.27152 7.02768L4.48888 8.30731ZM2.58129 6.79368L3.64418 5.73526L3.64465 5.73573L2.58129 6.79368ZM0.576727 2.45933L-0.894054 2.16456L-0.892206 2.15562L0.576727 2.45933ZM1.23028 1.23043L0.164641 0.174773L0.170943 0.168411L0.177321 0.162125L1.23028 1.23043ZM1.91827 0.75517L2.56163 2.11023L2.55355 2.114L1.91827 0.75517ZM2.95648 0.539333L2.95648 2.03937L2.94635 2.0393L2.95648 0.539333ZM3.65378 0.639415L4.13857 -0.780084L4.14592 -0.777575L4.15324 -0.77499L3.65378 0.639415ZM4.22292 0.336069L2.90204 1.0469L2.89743 1.03834L2.89294 1.02971L4.22292 0.336069ZM3.635 0.0795801L3.25748 1.5313L3.2573 1.53125L3.635 0.0795801ZM2.69994 1.50615C2.28407 1.58549 1.94048 1.82059 1.732 2.13922L-0.778381 0.496666C-0.111108 -0.523152 0.946438 -1.21343 2.13775 -1.4407L2.69994 1.50615ZM1.73019 2.14198C1.45884 2.55471 1.33361 3.13168 1.89533 4.26259L-0.791505 5.59711C-1.64954 3.86959 -1.82505 2.08868 -0.776573 0.493909L1.73019 2.14198ZM1.89626 4.26447C2.38661 5.25518 3.27543 6.28244 4.41607 7.1011L2.66683 9.53834C1.19328 8.48076 -0.0507886 7.09366 -0.792435 5.59524L1.89626 4.26447ZM4.41025 7.09694C4.6117 7.24007 4.8637 7.40275 5.07178 7.5267C5.17701 7.58939 5.25375 7.63185 5.29713 7.65401C5.32106 7.66623 5.31443 7.66178 5.28671 7.65049C5.27339 7.64507 5.23414 7.62939 5.17776 7.61297C5.14872 7.60451 5.10353 7.59243 5.04657 7.58183C4.99376 7.57201 4.90073 7.55768 4.78292 7.55768V10.5577C4.56222 10.5577 4.39134 10.5086 4.33867 10.4932C4.26161 10.4708 4.19758 10.4462 4.15575 10.4292C4.07103 10.3947 3.9925 10.3563 3.93264 10.3257C3.80843 10.2623 3.67002 10.1836 3.53643 10.104C3.26687 9.94347 2.94663 9.73716 2.67266 9.5425L4.41025 7.09694ZM4.78292 7.55768C4.61294 7.55768 4.48767 7.58875 4.44475 7.59999C4.38959 7.61443 4.35234 7.62852 4.33983 7.63338C4.31533 7.64288 4.31679 7.64402 4.35264 7.62557C4.42074 7.5905 4.53197 7.52675 4.6779 7.43473C4.96777 7.25196 5.31174 7.01011 5.58631 6.7899L7.46327 9.1302C7.0905 9.42917 6.65267 9.73614 6.27802 9.97238C6.09168 10.0899 5.89996 10.2032 5.7259 10.2928C5.64066 10.3367 5.53623 10.3871 5.42497 10.4302C5.36886 10.452 5.10784 10.5577 4.78292 10.5577V7.55768ZM5.58429 6.79152C6.40786 6.12866 7.07487 5.35099 7.51627 4.60414C7.97317 3.83103 8.114 3.22101 8.09221 2.86334L11.0867 2.68095C11.1586 3.86189 10.7209 5.07814 10.0989 6.1305C9.46148 7.20912 8.54931 8.25609 7.46529 9.12858L5.58429 6.79152ZM8.09211 2.86168C8.06943 2.4823 7.95138 2.21212 7.69338 1.93964L9.87179 -0.123016C10.6146 0.661483 11.0219 1.59848 11.0868 2.68261L8.09211 2.86168ZM7.69345 1.93971C7.49959 1.73501 7.28878 1.60677 6.98327 1.52262L7.77994 -1.36967C8.58758 -1.1472 9.28386 -0.743849 9.87172 -0.12309L7.69345 1.93971ZM6.98999 1.52445C7.00954 1.52974 6.98694 1.52249 6.91051 1.51457C6.84188 1.50747 6.75735 1.50265 6.66735 1.5017C6.57714 1.50076 6.49533 1.50385 6.43203 1.50917C6.35821 1.51538 6.35038 1.5212 6.38929 1.51091L5.62193 -1.3893C5.97854 -1.48365 6.39651 -1.5013 6.69881 -1.49813C7.00857 -1.49488 7.41958 -1.46714 7.77323 -1.3715L6.98999 1.52445ZM6.40545 1.50653C6.10409 1.58988 6.02406 1.63071 5.83583 1.76079L4.13033 -0.707263C4.6301 -1.05262 5.02517 -1.22435 5.60577 -1.38492L6.40545 1.50653ZM5.8366 1.76025C5.80458 1.78241 5.74539 1.83012 5.67 1.90554C5.59693 1.97864 5.52764 2.05877 5.47229 2.13201C5.412 2.21178 5.39303 2.25052 5.39806 2.24007C5.40022 2.23558 5.426 2.18296 5.44816 2.0922C5.45976 2.04466 5.47449 1.97002 5.47946 1.87466C5.48435 1.78063 5.48105 1.6417 5.43961 1.47811L2.53146 2.21476C2.43862 1.84826 2.49567 1.53669 2.53373 1.38076C2.57707 1.20322 2.64072 1.05152 2.69478 0.939198C2.8036 0.713059 2.94451 0.501047 3.0789 0.323224C3.34224 -0.0252224 3.71695 -0.421224 4.12956 -0.70673L5.8366 1.76025ZM5.44083 1.48295C5.25043 0.720641 4.39098 0.326182 3.68397 0.694097L5.06881 3.35534C4.04931 3.88587 2.80815 3.32259 2.53024 2.20992L5.44083 1.48295ZM3.60563 0.737887C3.5217 0.788157 3.45992 0.836654 3.42418 0.866353C3.3859 0.898166 3.35642 0.9261 3.33698 0.945286C3.29918 0.982588 3.27348 1.01251 3.26263 1.02537C3.24045 1.05168 3.23088 1.06586 3.23644 1.05807C3.24523 1.04573 3.26655 1.01391 3.29279 0.970487L5.86031 2.52221C5.80525 2.61332 5.74216 2.71129 5.67904 2.79982C5.64864 2.84245 5.60622 2.89983 5.55628 2.95907C5.55334 2.96256 5.39708 3.16185 5.14715 3.31155L3.60563 0.737887ZM3.27854 0.994578C3.80861 0.0793667 4.65871 -0.572137 5.67426 -0.850972L6.46856 2.04197C6.20803 2.1135 6.00736 2.26885 5.87457 2.49812L3.27854 0.994578ZM5.65513 -0.845584C6.00657 -0.947101 6.35257 -0.960829 6.66242 -0.960829V2.03917C6.54708 2.03917 6.48626 2.04262 6.45624 2.04545C6.43078 2.04786 6.44811 2.04801 6.48768 2.03658L5.65513 -0.845584ZM6.66242 -0.960829C6.97228 -0.960829 7.31828 -0.947101 7.66972 -0.845584L6.83717 2.03658C6.87674 2.04801 6.89407 2.04786 6.86862 2.04545C6.83859 2.04262 6.77777 2.03917 6.66242 2.03917V-0.960829ZM7.65174 -0.850655C9.44946 -0.355526 10.6931 1.32016 10.5538 3.20473L7.56193 2.98348C7.59138 2.58527 7.32779 2.17183 6.85514 2.04165L7.65174 -0.850655ZM10.5538 3.20416C10.4788 4.22316 10.0337 5.25187 9.45473 6.15013C8.86307 7.06807 8.06385 7.95608 7.14051 8.69981L5.25862 6.36347C5.94263 5.81252 6.52251 5.16192 6.93313 4.52484C7.35645 3.86808 7.53678 3.32536 7.56189 2.98404L10.5538 3.20416ZM7.13675 8.70284C6.7412 9.01935 6.11697 9.45429 5.67027 9.71787L4.14569 7.13414C4.46209 6.94744 4.96994 6.59446 5.26239 6.36045L7.13675 8.70284ZM5.68925 9.70648L5.5766 9.77521L4.01405 7.21427L4.12671 7.14553L5.68925 9.70648ZM4.01268 9.77438L3.70624 9.58695L5.27152 7.02768L5.57797 7.2151L4.01268 9.77438ZM3.70724 9.58756C2.89302 9.09045 2.20508 8.5423 1.51793 7.85164L3.64465 5.73573C4.17089 6.26466 4.67119 6.66115 5.27052 7.02706L3.70724 9.58756ZM1.51841 7.85211C0.681122 7.0113 0.0088771 6.08275 -0.424158 5.14536C-0.847611 4.22872 -1.0974 3.17932 -0.894027 2.16457L2.04748 2.75409C2.0133 2.92464 2.02931 3.30283 2.29928 3.88724C2.55968 4.45091 3.00849 5.09689 3.64418 5.73526L1.51841 7.85211ZM-0.892206 2.15562C-0.737833 1.40897 -0.372922 0.717414 0.164641 0.174773L2.29591 2.2861C2.17682 2.40631 2.08525 2.57157 2.04566 2.76303L-0.892206 2.15562ZM0.177321 0.162125C0.517196 -0.172866 0.837249 -0.395267 1.283 -0.603661L2.55355 2.114C2.46087 2.15733 2.42075 2.18263 2.39944 2.1974C2.3791 2.2115 2.34677 2.23612 2.28323 2.29874L0.177321 0.162125ZM1.27493 -0.599863C1.51616 -0.71439 1.78047 -0.822134 2.09779 -0.888156C2.40574 -0.952229 2.69494 -0.962465 2.9666 -0.960633L2.94635 2.0393C2.75826 2.03803 2.71285 2.04812 2.70888 2.04894C2.70808 2.04911 2.70253 2.05008 2.68518 2.05641C2.66451 2.06394 2.62752 2.07891 2.56161 2.1102L1.27493 -0.599863ZM2.95648 -0.960667C3.12745 -0.960667 3.34151 -0.96076 3.55958 -0.929236C3.80423 -0.893872 4.00047 -0.82725 4.13857 -0.780084L3.16899 2.05891C3.0413 2.0153 3.07493 2.03189 3.13038 2.0399C3.15234 2.04308 3.15813 2.04223 3.12968 2.04118C3.09743 2.03999 3.04774 2.03933 2.95648 2.03933V-0.960667ZM4.15324 -0.77499C4.19771 -0.759284 4.2424 -0.745709 4.27133 -0.737927C4.28644 -0.733863 4.28575 -0.734482 4.27177 -0.737362C4.26494 -0.738769 4.24486 -0.742813 4.21566 -0.747038C4.20062 -0.749214 4.17796 -0.752198 4.1497 -0.754781C4.1233 -0.757194 4.07878 -0.760504 4.02276 -0.760504V2.2395C3.84302 2.2395 3.69023 2.20583 3.66639 2.20092C3.60405 2.18808 3.54375 2.173 3.49202 2.15908C3.38728 2.13091 3.26935 2.09444 3.15432 2.05382L4.15324 -0.77499ZM4.02276 -0.760504C3.34546 -0.760504 2.99004 -0.299705 2.87474 -0.0668758C2.75064 0.18375 2.66535 0.607072 2.90204 1.0469L5.5438 -0.374765C5.868 0.227677 5.76704 0.852713 5.56318 1.2644C5.36813 1.65829 4.86888 2.2395 4.02276 2.2395V-0.760504ZM2.89294 1.02971C2.99677 1.2288 3.12139 1.35377 3.18285 1.41044C3.25193 1.47414 3.31106 1.51482 3.34237 1.53515C3.40372 1.57498 3.44164 1.59023 3.43305 1.58649C3.42122 1.58134 3.36209 1.5585 3.25748 1.5313L4.01253 -1.37214C4.22057 -1.31803 4.43662 -1.24863 4.6312 -1.16386C4.72581 -1.12265 4.84975 -1.06301 4.97599 -0.981052C5.04722 -0.934807 5.35396 -0.739026 5.55291 -0.357574L2.89294 1.02971ZM3.2573 1.53125C3.26433 1.53308 3.23837 1.52639 3.1736 1.51844C3.11389 1.51111 3.04174 1.50523 2.96528 1.5022C2.88864 1.49916 2.8185 1.49943 2.76259 1.50198C2.70028 1.50482 2.68407 1.50923 2.70441 1.50529L2.13327 -1.43984C2.45225 -1.5017 2.81084 -1.50627 3.08403 -1.49545C3.36213 -1.48443 3.70932 -1.45102 4.01271 -1.37209L3.2573 1.53125Z" fill="#666666" mask="url(#path-1-inside-1)"/>
</svg>
