<svg width="77" height="23" viewBox="0 0 77 23" fill="none" xmlns="http://www.w3.org/2000/svg">
<path d="M4.27344 18H0.3125V0H4.27344V18ZM13.8594 18C13.7188 17.7422 13.5938 17.3633 13.4844 16.8633C12.7578 17.7773 11.7422 18.2344 10.4375 18.2344C9.24219 18.2344 8.22656 17.875 7.39062 17.1562C6.55469 16.4297 6.13672 15.5195 6.13672 14.4258C6.13672 13.0508 6.64453 12.0117 7.66016 11.3086C8.67578 10.6055 10.1523 10.2539 12.0898 10.2539H13.3086V9.58594C13.3086 8.42188 12.8047 7.83984 11.7969 7.83984C10.8594 7.83984 10.3906 8.30078 10.3906 9.22266H6.44141C6.44141 7.99609 6.96094 7 8 6.23438C9.04688 5.46875 10.3789 5.08594 11.9961 5.08594C13.6133 5.08594 14.8906 5.48047 15.8281 6.26953C16.7656 7.05859 17.2461 8.14062 17.2695 9.51562V15.1289C17.2852 16.293 17.4648 17.1836 17.8086 17.8008V18H13.8594ZM11.3867 15.4219C11.8789 15.4219 12.2852 15.3164 12.6055 15.1055C12.9336 14.8945 13.168 14.6562 13.3086 14.3906V12.3633H12.1602C10.7852 12.3633 10.0977 12.9805 10.0977 14.2148C10.0977 14.5742 10.2188 14.8672 10.4609 15.0938C10.7031 15.3125 11.0117 15.4219 11.3867 15.4219ZM27.1367 8.89453L25.8359 8.80078C24.5938 8.80078 23.7969 9.19141 23.4453 9.97266V18H19.4961V5.32031H23.1992L23.3281 6.94922C23.9922 5.70703 24.918 5.08594 26.1055 5.08594C26.5273 5.08594 26.8945 5.13281 27.207 5.22656L27.1367 8.89453ZM27.8633 11.5664C27.8633 10.2852 28.0742 9.15234 28.4961 8.16797C28.918 7.18359 29.5234 6.42578 30.3125 5.89453C31.1016 5.35547 32.0195 5.08594 33.0664 5.08594C34.3867 5.08594 35.418 5.53125 36.1602 6.42188L36.3008 5.32031H39.8867V17.5195C39.8867 18.6367 39.625 19.6055 39.1016 20.4258C38.5859 21.2539 37.8359 21.8867 36.8516 22.3242C35.8672 22.7695 34.7266 22.9922 33.4297 22.9922C32.5 22.9922 31.5977 22.8164 30.7227 22.4648C29.8555 22.1133 29.1914 21.6562 28.7305 21.0938L30.3828 18.7734C31.1172 19.6406 32.0859 20.0742 33.2891 20.0742C35.0391 20.0742 35.9141 19.1758 35.9141 17.3789V16.9805C35.1562 17.8164 34.1992 18.2344 33.043 18.2344C31.4961 18.2344 30.2461 17.6445 29.293 16.4648C28.3398 15.2773 27.8633 13.6914 27.8633 11.707V11.5664ZM31.8242 11.8125C31.8242 12.8516 32.0195 13.6758 32.4102 14.2852C32.8008 14.8867 33.3477 15.1875 34.0508 15.1875C34.9023 15.1875 35.5234 14.9023 35.9141 14.332V9C35.5312 8.42188 34.918 8.13281 34.0742 8.13281C33.3711 8.13281 32.8203 8.44922 32.4219 9.08203C32.0234 9.70703 31.8242 10.6172 31.8242 11.8125ZM48.2656 18.2344C46.3203 18.2344 44.7461 17.6562 43.543 16.5C42.3398 15.3359 41.7383 13.8242 41.7383 11.9648V11.6367C41.7383 10.3398 41.9766 9.19531 42.4531 8.20312C42.9375 7.21094 43.6406 6.44531 44.5625 5.90625C45.4844 5.35938 46.5781 5.08594 47.8438 5.08594C49.625 5.08594 51.0312 5.64062 52.0625 6.75C53.0938 7.85156 53.6094 9.39062 53.6094 11.3672V12.9023H45.7578C45.8984 13.6133 46.207 14.1719 46.6836 14.5781C47.1602 14.9844 47.7773 15.1875 48.5352 15.1875C49.7852 15.1875 50.7617 14.75 51.4648 13.875L53.2695 16.0078C52.7773 16.6875 52.0781 17.2305 51.1719 17.6367C50.2734 18.0352 49.3047 18.2344 48.2656 18.2344ZM47.8203 8.13281C46.6641 8.13281 45.9766 8.89844 45.7578 10.4297H49.7422V10.125C49.7578 9.49219 49.5977 9.00391 49.2617 8.66016C48.9258 8.30859 48.4453 8.13281 47.8203 8.13281ZM61.3438 18.2344C59.3984 18.2344 57.8242 17.6562 56.6211 16.5C55.418 15.3359 54.8164 13.8242 54.8164 11.9648V11.6367C54.8164 10.3398 55.0547 9.19531 55.5312 8.20312C56.0156 7.21094 56.7188 6.44531 57.6406 5.90625C58.5625 5.35938 59.6562 5.08594 60.9219 5.08594C62.7031 5.08594 64.1094 5.64062 65.1406 6.75C66.1719 7.85156 66.6875 9.39062 66.6875 11.3672V12.9023H58.8359C58.9766 13.6133 59.2852 14.1719 59.7617 14.5781C60.2383 14.9844 60.8555 15.1875 61.6133 15.1875C62.8633 15.1875 63.8398 14.75 64.543 13.875L66.3477 16.0078C65.8555 16.6875 65.1562 17.2305 64.25 17.6367C63.3516 18.0352 62.3828 18.2344 61.3438 18.2344ZM60.8984 8.13281C59.7422 8.13281 59.0547 8.89844 58.8359 10.4297H62.8203V10.125C62.8359 9.49219 62.6758 9.00391 62.3398 8.66016C62.0039 8.30859 61.5234 8.13281 60.8984 8.13281ZM75.957 8.89453L74.6562 8.80078C73.4141 8.80078 72.6172 9.19141 72.2656 9.97266V18H68.3164V5.32031H72.0195L72.1484 6.94922C72.8125 5.70703 73.7383 5.08594 74.9258 5.08594C75.3477 5.08594 75.7148 5.13281 76.0273 5.22656L75.957 8.89453Z" fill="#333333"/>
</svg>
