<svg width="19" height="21" viewBox="0 0 19 21" fill="none" xmlns="http://www.w3.org/2000/svg">
<path d="M12.8225 17.6415C12.5088 19.1911 11.1399 20.3564 9.49896 20.3564C7.85799 20.3564 6.48912 19.1911 6.17547 17.6415H0L2.7128 12.2138V6.78616C2.7128 3.03892 5.75172 0 9.49896 0C13.2462 0 16.2851 3.03892 16.2851 6.78616V12.2138L19 17.6415H12.8225ZM9.49896 19C10.3838 19 11.1295 18.4309 11.41 17.6436H7.58795C7.86837 18.4309 8.61408 19 9.49896 19ZM14.9266 12.2138V6.78616C14.9266 3.78878 12.4963 1.35848 9.49896 1.35848C6.50158 1.35848 4.07128 3.78878 4.07128 6.78616V12.2138L2.03564 16.2851H16.9644L14.9266 12.2138Z" fill="#666666"/>
</svg>
