<svg width="16" height="16" viewBox="0 0 16 16" fill="none" xmlns="http://www.w3.org/2000/svg">
<path d="M8.83511 0.00123405C9.08245 0.00737 9.33891 0.0350018 9.51 0.0795193L8.83511 0.00123405ZM8.83511 0.00123405L8.83148 0.539272M8.83511 0.00123405L8.83148 0.539272M8.83148 0.539272V0.00114536C8.62835 -0.00372314 8.43168 0.0059309 8.29384 0.0326614C8.0391 0.0812607 7.79471 0.160952 7.56576 0.268457L7.79327 0.755109C8.02251 0.646273 8.19018 0.588164 8.39454 0.560505C8.39508 0.560431 8.39562 0.560359 8.39616 0.560287C8.52033 0.543595 8.65811 0.538102 8.83148 0.539272ZM7.56287 0.269815C7.25337 0.415541 6.97216 0.612127 6.73182 0.851466C6.73032 0.852961 6.72882 0.854457 6.72732 0.855954C6.58737 0.995927 6.46137 1.15044 6.35181 1.31788C6.13812 1.64291 5.99626 1.9863 5.92623 2.35062C5.92602 2.35169 5.92582 2.35276 5.92561 2.35383C5.78044 3.11378 5.94758 3.96473 6.42691 4.92979C6.81437 5.71262 7.38004 6.48065 8.07172 7.17624L7.56287 0.269815Z" fill="#666666" stroke="#666666" stroke-width="1.5"/>
<path d="M12.9536 1.17719C12.8316 1.22715 12.7784 1.418 12.8504 1.55237C12.8692 1.58682 12.9786 1.65866 13.0943 1.71188C13.3696 1.84315 13.6197 2.09653 13.751 2.3718C13.8042 2.48755 13.876 2.59694 13.9105 2.61571C14.0075 2.66567 14.1575 2.65327 14.2262 2.58437C14.3263 2.48429 14.3325 2.3811 14.2576 2.19041C14.1043 1.81833 13.7541 1.44608 13.3758 1.25539C13.1507 1.1429 13.0725 1.13033 12.9536 1.17719Z" fill="#666666"/>
<path d="M0.699725 8.56362C0.708956 8.5813 0.708372 8.57739 0.698234 8.56077L0.699725 8.56362Z" fill="#666666" stroke="#666666" stroke-width="1.5"/>
<mask id="path-4-inside-1" fill="white">
<path d="M3.35268 9.62062C3.26207 9.65817 3.18077 9.81768 3.20575 9.91449C3.21505 9.95514 3.25571 10.0177 3.29326 10.0552C3.35889 10.1178 3.39954 10.1178 4.5504 10.1272L5.7419 10.1365L6.0046 10.2711C6.14843 10.3431 6.56443 10.6213 6.92394 10.8871C7.33978 11.1935 7.69945 11.4312 7.90271 11.5344L8.22794 11.7001L9.29422 11.7189C9.96344 11.7315 10.4044 11.7502 10.4763 11.7752C10.5388 11.794 10.6514 11.8534 10.7264 11.9034C10.8952 12.0159 11.0141 12.0222 11.1141 11.9191C11.2111 11.8252 11.2173 11.6626 11.1329 11.5532C11.0328 11.4281 10.7107 11.2748 10.448 11.228C10.2823 11.1999 9.92573 11.1873 9.29716 11.1842H8.38402L8.1401 11.0591C8.00247 10.9904 7.75855 10.8371 7.59594 10.7182C6.77978 10.1178 6.49831 9.92396 6.27937 9.80821C5.87284 9.59564 5.81652 9.58927 4.54697 9.59237C3.92819 9.59253 3.39024 9.60494 3.35268 9.62062Z"/>
</mask>
<path d="M3.35268 9.62062C3.26207 9.65817 3.18077 9.81768 3.20575 9.91449C3.21505 9.95514 3.25571 10.0177 3.29326 10.0552C3.35889 10.1178 3.39954 10.1178 4.5504 10.1272L5.7419 10.1365L6.0046 10.2711C6.14843 10.3431 6.56443 10.6213 6.92394 10.8871C7.33978 11.1935 7.69945 11.4312 7.90271 11.5344L8.22794 11.7001L9.29422 11.7189C9.96344 11.7315 10.4044 11.7502 10.4763 11.7752C10.5388 11.794 10.6514 11.8534 10.7264 11.9034C10.8952 12.0159 11.0141 12.0222 11.1141 11.9191C11.2111 11.8252 11.2173 11.6626 11.1329 11.5532C11.0328 11.4281 10.7107 11.2748 10.448 11.228C10.2823 11.1999 9.92573 11.1873 9.29716 11.1842H8.38402L8.1401 11.0591C8.00247 10.9904 7.75855 10.8371 7.59594 10.7182C6.77978 10.1178 6.49831 9.92396 6.27937 9.80821C5.87284 9.59564 5.81652 9.58927 4.54697 9.59237C3.92819 9.59253 3.39024 9.60494 3.35268 9.62062Z" fill="#666666"/>
<path d="M3.35268 9.62062L3.93046 11.0049L3.92695 11.0063L3.35268 9.62062ZM3.20575 9.91449L4.65818 9.53975L4.66333 9.5597L4.66792 9.57978L3.20575 9.91449ZM3.29326 10.0552L2.25857 11.1412L2.24543 11.1287L2.2326 11.1159L3.29326 10.0552ZM4.5504 10.1272L4.53868 11.6272L4.53805 11.6272L4.5504 10.1272ZM5.7419 10.1365L5.75362 8.63658L6.10917 8.63935L6.42564 8.80143L5.7419 10.1365ZM6.0046 10.2711L5.33314 11.6125L5.32086 11.6062L6.0046 10.2711ZM6.92394 10.8871L6.03406 12.0946L6.0322 12.0932L6.92394 10.8871ZM7.90271 11.5344L8.58169 10.1969L8.58371 10.1979L7.90271 11.5344ZM8.22794 11.7001L8.20153 13.1999L7.85539 13.1938L7.54694 13.0366L8.22794 11.7001ZM9.29422 11.7189L9.32063 10.2191L9.32239 10.2192L9.29422 11.7189ZM10.4763 11.7752L10.0449 13.2119L10.014 13.2026L9.9836 13.192L10.4763 11.7752ZM10.7264 11.9034L9.89461 13.1516L9.89433 13.1515L10.7264 11.9034ZM11.1141 11.9191L10.0374 10.8747L10.0539 10.8577L10.0708 10.8413L11.1141 11.9191ZM11.1329 11.5532L12.3041 10.616L12.3124 10.6263L12.3205 10.6368L11.1329 11.5532ZM10.448 11.228L10.6986 9.74899L10.7114 9.75127L10.448 11.228ZM9.29716 11.1842V9.68418L9.30456 9.68422L9.29716 11.1842ZM8.38402 11.1842V12.6842H8.02189L7.69965 12.519L8.38402 11.1842ZM8.1401 11.0591L8.81028 9.71718L8.81739 9.72073L8.82447 9.72436L8.1401 11.0591ZM7.59594 10.7182L6.71079 11.9292L6.707 11.9265L7.59594 10.7182ZM6.27937 9.80821L6.97443 8.47894L6.98048 8.48214L6.27937 9.80821ZM4.54697 9.59237L4.55063 11.0924L4.54736 11.0924L4.54697 9.59237ZM3.92695 11.0063C4.16492 10.9077 4.31524 10.7678 4.39272 10.6834C4.47707 10.5916 4.53515 10.5003 4.57567 10.4198C4.61616 10.3394 4.65554 10.2371 4.67919 10.1123C4.70113 9.99658 4.72287 9.79048 4.65818 9.53975L1.75331 10.2892C1.61178 9.74069 1.78952 9.2825 1.89607 9.07084C2.00226 8.85991 2.26158 8.44908 2.77842 8.23489L3.92695 11.0063ZM4.66792 9.57978C4.63868 9.452 4.59823 9.35854 4.57609 9.31135C4.551 9.25786 4.52668 9.21602 4.50775 9.18599C4.47422 9.13281 4.42617 9.06682 4.35392 8.99457L2.2326 11.1159C2.12279 11.0061 2.03564 10.8901 1.97007 10.7861C1.91866 10.7045 1.80358 10.5114 1.74357 10.2492L4.66792 9.57978ZM4.32794 8.96921C4.30968 8.95181 4.23098 8.87678 4.11177 8.80255C3.98678 8.72473 3.86746 8.67801 3.77095 8.6502C3.68491 8.6254 3.62099 8.61688 3.60205 8.61452C3.581 8.61189 3.57577 8.6122 3.59796 8.61343C3.64481 8.61603 3.73209 8.61861 3.89846 8.62092C4.05987 8.62315 4.27306 8.62489 4.56274 8.62728L4.53805 11.6272C3.98868 11.6227 3.63979 11.6204 3.43178 11.6088C3.34356 11.6039 3.1479 11.5927 2.94012 11.5329C2.81259 11.4961 2.67033 11.439 2.52606 11.3492C2.38756 11.263 2.29324 11.1743 2.25857 11.1412L4.32794 8.96921ZM4.56211 8.62727L5.75362 8.63658L5.73019 11.6365L4.53868 11.6272L4.56211 8.62727ZM6.42564 8.80143L6.68833 8.93596L5.32086 11.6062L5.05817 11.4716L6.42564 8.80143ZM6.67603 8.92973C6.95193 9.06784 7.46551 9.42202 7.81568 9.68091L6.0322 12.0932C5.87161 11.9745 5.6968 11.8519 5.54878 11.7527C5.47477 11.7032 5.41257 11.6629 5.36575 11.6338C5.30839 11.5981 5.30403 11.5978 5.33317 11.6124L6.67603 8.92973ZM7.81382 9.67954C8.22436 9.98208 8.49821 10.1545 8.58169 10.1969L7.22374 12.8719C6.90069 12.7079 6.45519 12.4049 6.03406 12.0946L7.81382 9.67954ZM8.58371 10.1979L8.90894 10.3636L7.54694 13.0366L7.22171 12.8709L8.58371 10.1979ZM8.25435 10.2004L9.32063 10.2191L9.26781 13.2187L8.20153 13.1999L8.25435 10.2004ZM9.32239 10.2192C9.66201 10.2255 9.95542 10.2337 10.1786 10.244C10.2886 10.2491 10.3952 10.2553 10.4874 10.2635C10.5327 10.2675 10.5887 10.2732 10.6471 10.2816C10.6771 10.286 10.8143 10.3047 10.9689 10.3584L9.9836 13.192C10.0664 13.2208 10.1316 13.2348 10.1557 13.2397C10.1861 13.246 10.2083 13.2494 10.2175 13.2507C10.2354 13.2533 10.2399 13.2533 10.2233 13.2518C10.1918 13.249 10.1328 13.2451 10.0399 13.2408C9.85734 13.2324 9.59566 13.2248 9.26605 13.2186L9.32239 10.2192ZM10.9076 10.3386C11.1756 10.4191 11.4308 10.5702 11.5584 10.6553L9.89433 13.1515C9.8998 13.1551 9.90352 13.1574 9.90531 13.1586C9.90719 13.1597 9.9081 13.1603 9.90813 13.1603C9.90818 13.1603 9.90794 13.1602 9.90755 13.16C9.90716 13.1597 9.90715 13.1597 9.90768 13.16C9.90817 13.1603 9.90989 13.1611 9.91293 13.1626C9.91587 13.164 9.92135 13.1666 9.92925 13.1701C9.93688 13.1734 9.94952 13.1788 9.9665 13.1853C9.98265 13.1914 10.0096 13.2013 10.0449 13.2119L10.9076 10.3386ZM11.5582 10.6551C11.5511 10.6504 11.3487 10.5082 11.0112 10.4935C10.8241 10.4854 10.6252 10.5182 10.4351 10.6012C10.2514 10.6813 10.1211 10.7884 10.0374 10.8747L12.1909 12.9634C11.8946 13.2689 11.4416 13.5151 10.8808 13.4907C10.4167 13.4705 10.0705 13.2688 9.89461 13.1516L11.5582 10.6551ZM10.0708 10.8413C9.5717 11.3245 9.6048 12.0282 9.94536 12.4695L12.3205 10.6368C12.8298 11.2969 12.8505 12.3259 12.1574 12.9968L10.0708 10.8413ZM9.96175 12.4904C10.0219 12.5655 10.0762 12.6156 10.1075 12.6425C10.1408 12.6712 10.1668 12.6896 10.1808 12.699C10.2073 12.7169 10.2175 12.7208 10.2076 12.7161C10.1998 12.7123 10.1883 12.7076 10.1772 12.7039C10.1649 12.6998 10.1667 12.7015 10.1846 12.7046L10.7114 9.75127C10.997 9.8022 11.2712 9.89995 11.4952 10.0064C11.6635 10.0864 12.0313 10.2751 12.3041 10.616L9.96175 12.4904ZM10.1974 12.7069C10.2188 12.7105 10.173 12.7025 9.99015 12.6957C9.82586 12.6895 9.59844 12.6857 9.28976 12.6842L9.30456 9.68422C9.88669 9.68709 10.3847 9.69584 10.6986 9.74904L10.1974 12.7069ZM9.29716 12.6842H8.38402V9.6842H9.29716V12.6842ZM7.69965 12.519L7.45573 12.3939L8.82447 9.72436L9.06839 9.84942L7.69965 12.519ZM7.46992 12.4011C7.23565 12.2841 6.9187 12.0812 6.71079 11.9292L8.48109 9.50725C8.52729 9.54102 8.59833 9.58905 8.6743 9.63669C8.7109 9.65964 8.74397 9.67957 8.771 9.6952C8.80017 9.71208 8.81265 9.71837 8.81028 9.71718L7.46992 12.4011ZM6.707 11.9265C5.85792 11.3017 5.67683 11.1864 5.57827 11.1343L6.98048 8.48214C7.31979 8.66154 7.70164 8.93376 8.48488 9.51003L6.707 11.9265ZM5.58432 11.1375C5.47932 11.0825 5.477 11.0844 5.49526 11.0912C5.53566 11.1061 5.56533 11.1096 5.55189 11.108C5.51981 11.104 5.44398 11.0979 5.26862 11.0946C5.09698 11.0915 4.87178 11.0916 4.55063 11.0924L4.5433 8.09237C5.12808 8.09095 5.57969 8.08836 5.92172 8.13085C6.41278 8.19185 6.71826 8.34501 6.97442 8.47896L5.58432 11.1375ZM4.54736 11.0924C4.24639 11.0924 3.96919 11.0955 3.76706 11.1003C3.66446 11.1027 3.59031 11.1053 3.54533 11.1076C3.52097 11.1089 3.51873 11.1094 3.5302 11.1083C3.53462 11.1079 3.55944 11.1056 3.59478 11.1001C3.6124 11.0974 3.64592 11.0918 3.68829 11.0823C3.7183 11.0755 3.81399 11.0535 3.93046 11.0049L2.77491 8.23636C2.89373 8.18676 2.99274 8.1638 3.02703 8.15605C3.07368 8.14551 3.11242 8.13902 3.13619 8.13535C3.18384 8.12797 3.22467 8.12379 3.24861 8.12153C3.2991 8.11677 3.34989 8.11372 3.39091 8.1116C3.47669 8.10718 3.58274 8.10376 3.69667 8.10109C3.9276 8.09567 4.22877 8.09245 4.54657 8.09237L4.54736 11.0924Z" fill="#666666" mask="url(#path-4-inside-1)"/>
<path d="M3.6823 13.4982C3.68213 13.4978 3.68196 13.4973 3.68177 13.4969C3.6807 13.4945 3.67943 13.4917 3.67795 13.4887C3.66959 13.4719 3.65445 13.4474 3.62943 13.4226C3.5984 13.3917 3.56755 13.3756 3.54972 13.3685C3.54309 13.3659 3.53926 13.3649 3.53926 13.3649C3.53927 13.3649 3.545 13.3663 3.55833 13.368C3.58217 13.371 3.61998 13.3735 3.67795 13.3735C3.72135 13.3735 3.76818 13.3748 3.81748 13.3773L3.81868 13.3512L3.81749 13.3773C4.14087 13.3936 4.56999 13.46 4.8263 13.5337L4.82631 13.5337L4.83136 13.5352C4.94105 13.568 5.14764 13.6578 5.3431 13.752C5.34313 13.752 5.34317 13.752 5.34321 13.7521C5.40024 13.7795 5.45633 13.8074 5.50878 13.8343C5.93239 14.0475 6.34628 14.2328 6.74014 14.3882C6.74015 14.3882 6.74017 14.3882 6.74019 14.3882C7.52369 14.6973 8.22793 14.8883 8.77183 14.9456C8.77183 14.9456 8.77183 14.9456 8.77183 14.9456C8.83187 14.952 8.88996 14.9567 8.94599 14.9597L3.6823 13.4982ZM6.56695 14.8227C6.23263 14.6895 5.65209 14.4265 5.29758 14.2501L8.92094 15.4245C8.853 15.4208 8.78686 15.4157 8.72297 15.409L8.72291 15.409C8.09934 15.3431 7.36503 15.1394 6.56767 14.823L6.56695 14.8227ZM6.61733 12.7806C6.61736 12.7806 6.61842 12.7807 6.6204 12.7806C6.61829 12.7806 6.61731 12.7806 6.61733 12.7806ZM6.4768 12.3568C6.38929 12.4693 6.38929 12.5976 6.4799 12.7008L6.7488 12.288C6.55174 12.2724 6.53933 12.2755 6.4768 12.3568Z" fill="#666666" stroke="#666666"/>
<path d="M0.704435 13.9393C0.538721 14.0705 0.488599 14.2645 0.576272 14.4366C0.688925 14.6586 0.951455 14.7242 1.15798 14.5835C1.48011 14.3677 1.31749 13.8736 0.920271 13.8736C0.832598 13.8736 0.760762 13.8955 0.704435 13.9393Z" fill="#666666"/>
</svg>
