<svg width="17" height="16" viewBox="0 0 17 16" fill="none" xmlns="http://www.w3.org/2000/svg">
<path d="M8.29604 0.032667C7.49245 0.185973 6.79188 0.648666 6.35401 1.31789C5.69409 2.32164 5.71923 3.50058 6.42911 4.9298C7.04511 6.17437 8.11155 7.38155 9.41865 8.31967C9.89408 8.65746 10.5631 9.05762 10.6601 9.05762C10.8384 9.05762 11.7546 8.47918 12.402 7.95999C14.3096 6.42465 15.5603 4.3107 15.4666 2.77209C15.4229 2.04034 15.1602 1.43675 14.6598 0.908256C14.2689 0.495523 13.8154 0.229728 13.2588 0.0764216C12.9117 -0.0174552 12.2018 -0.0236589 11.8828 0.0607489C11.4418 0.182708 11.2043 0.288994 10.8603 0.526707C10.3631 0.870706 9.8033 1.61177 9.86273 1.84638C9.90649 2.02156 10.0973 2.10597 10.2536 2.02466C10.2849 2.00589 10.3724 1.88083 10.4537 1.7463C10.7852 1.17405 11.3106 0.770625 11.9486 0.595442C12.0893 0.554788 12.2613 0.539115 12.5396 0.539115C12.818 0.539115 12.9899 0.554788 13.1306 0.595442C14.2658 0.908094 15.0195 1.95266 14.935 3.09405C14.835 4.45437 13.6841 6.2369 12.0768 7.53159C11.7328 7.80685 11.1667 8.20081 10.7852 8.42595L10.6725 8.49469L10.3661 8.30726C9.6593 7.87575 9.06518 7.40342 8.45849 6.79363C6.98551 5.31445 6.21637 3.64458 6.45392 2.45927C6.5509 1.99021 6.77915 1.56181 7.10747 1.23038C7.32331 1.01764 7.50143 0.892584 7.79547 0.755114C8.16445 0.579931 8.37392 0.536176 8.83367 0.539278C9.20575 0.539278 9.26518 0.548585 9.53098 0.639359C9.69049 0.695686 9.8562 0.739441 9.89995 0.739441C10.0688 0.739441 10.1876 0.498625 10.1001 0.336013C10.0626 0.264013 9.82485 0.16083 9.5122 0.0795249C9.19971 -0.00178158 8.60249 -0.0267612 8.29604 0.032667Z" fill="#666666"/>
<path d="M12.9555 1.17717C12.8335 1.22713 12.7803 1.41798 12.8523 1.55235C12.8711 1.5868 12.9805 1.65864 13.0962 1.71186C13.3715 1.84313 13.6216 2.09651 13.7529 2.37178C13.8061 2.48753 13.8779 2.59692 13.9124 2.6157C14.0093 2.66565 14.1594 2.65325 14.2281 2.58435C14.3282 2.48427 14.3344 2.38108 14.2595 2.19039C14.1062 1.81831 13.756 1.44607 13.3777 1.25537C13.1525 1.14288 13.0743 1.13031 12.9555 1.17717Z" fill="#666666"/>
<path d="M0.0901934 8.61688C-0.00678595 8.71386 -0.0224586 8.80137 0.0369698 8.91076C0.112072 9.0546 0.127581 9.0546 1.04072 9.0577C1.92578 9.0577 1.99762 9.06701 2.08529 9.17966C2.11664 9.21721 2.12284 9.92708 2.12594 12.2538C2.12594 13.9143 2.11664 15.2996 2.10717 15.3277C2.05721 15.4528 1.94766 15.4685 1.04072 15.4685C0.127581 15.4716 0.111908 15.4716 0.0369698 15.6154C-0.0224586 15.7248 -0.00678595 15.8125 0.0901934 15.9093L0.180806 15.9999H1.08464C2.07909 15.9999 2.1697 15.9873 2.38243 15.8123C2.44496 15.7591 2.53247 15.6466 2.57639 15.5558L2.6577 15.3932V9.13264L2.57639 8.97003C2.53264 8.88235 2.44186 8.76676 2.37623 8.71354C2.15109 8.53558 2.08235 8.52611 1.08791 8.52611H0.180969L0.0901934 8.61688Z" fill="#666666"/>
<path d="M3.355 9.6206C3.26439 9.65815 3.18309 9.81766 3.20807 9.91447C3.21737 9.95513 3.25802 10.0177 3.29558 10.0552C3.36121 10.1177 3.40186 10.1177 4.55271 10.1272L5.74422 10.1365L6.00691 10.271C6.15075 10.343 6.56675 10.6212 6.92626 10.887C7.3421 11.1935 7.70177 11.4312 7.90503 11.5344L8.23026 11.7001L9.29654 11.7189C9.96576 11.7314 10.4067 11.7502 10.4786 11.7752C10.5411 11.794 10.6538 11.8534 10.7287 11.9034C10.8975 12.0159 11.0164 12.0222 11.1165 11.919C11.2134 11.8252 11.2196 11.6626 11.1352 11.5532C11.0351 11.4281 10.713 11.2748 10.4503 11.2279C10.2846 11.1999 9.92805 11.1873 9.29948 11.1842H8.38634L8.14242 11.0591C8.00479 10.9904 7.76087 10.8371 7.59826 10.7182C6.7821 10.1177 6.50063 9.92394 6.28169 9.80819C5.87516 9.59562 5.81883 9.58925 4.54929 9.59235C3.93051 9.59251 3.39255 9.60492 3.355 9.6206Z" fill="#666666"/>
<path d="M14.7192 10.6871C14.5816 10.7184 14.5284 10.7434 12.6333 11.6689C11.8671 12.041 11.1636 12.3726 11.0698 12.4038C10.8133 12.4913 10.3661 12.5289 9.63433 12.5289C8.89637 12.5289 8.45229 12.4975 7.56723 12.385C7.23254 12.3413 6.86356 12.2975 6.75107 12.288C6.55401 12.2724 6.5416 12.2755 6.47907 12.3568C6.39156 12.4693 6.39156 12.5976 6.48217 12.7008C6.5416 12.7728 6.59793 12.7915 6.92625 12.8415C8.03645 13.0103 8.47727 13.0448 9.60004 13.0448C10.7445 13.0448 10.9729 13.0229 11.3481 12.8729C11.4325 12.8415 12.2425 12.4538 13.1525 12.0097C14.5754 11.3155 14.8255 11.2028 14.9507 11.2028C15.401 11.2028 15.6418 11.7594 15.3292 12.0879C15.2448 12.1787 11.7579 14.3582 11.4608 14.5052C10.8822 14.7991 9.57816 14.9961 8.77768 14.9117C8.21474 14.8523 7.52674 14.6647 6.75433 14.3582C6.36968 14.2049 5.64103 13.8704 5.36267 13.7202C4.93736 13.4889 4.49638 13.3824 3.82096 13.3512C3.41132 13.3324 3.37067 13.3355 3.31124 13.3919C3.21116 13.4827 3.17998 13.5889 3.22373 13.6921C3.28006 13.8266 3.39892 13.8735 3.68022 13.8735C3.96169 13.8735 4.44006 13.9422 4.69034 14.0142C4.78422 14.0423 5.05312 14.1612 5.28446 14.28C6.66976 14.9773 8.00201 15.409 8.92135 15.459C9.79073 15.5058 10.9447 15.3182 11.6451 15.0149C11.8203 14.9398 15.5697 12.6038 15.6792 12.5037C16.1107 12.1003 16.1107 11.3623 15.673 10.962C15.4196 10.7277 15.0164 10.612 14.7192 10.6871Z" fill="#666666"/>
<path d="M0.706339 13.9393C0.540626 14.0705 0.490503 14.2645 0.578176 14.4366C0.690829 14.6586 0.953359 14.7243 1.15989 14.5835C1.48201 14.3677 1.3194 13.8737 0.922175 13.8737C0.834502 13.8737 0.762666 13.8955 0.706339 13.9393Z" fill="#666666"/>
</svg>
